<?xml version="1.0" encoding="iso-8859-1"?>
<!-- Generator: Adobe Illustrator 19.0.0, SVG Export Plug-In . SVG Version: 6.00 Build 0)  -->
<svg version="1.1" id="Layer_1" xmlns="http://www.w3.org/2000/svg" xmlns:xlink="http://www.w3.org/1999/xlink" x="0px" y="0px"
	 viewBox="0 0 512.001 512.001" style="enable-background:new 0 0 512.001 512.001;" xml:space="preserve">
<g>
	<g>
		<path d="M509.188,248.968c-1.722-1.808-42.765-44.291-94.834-44.291c-15.003,0-28.107,0.683-39.418,2.059
			c8.971-7.025,18.721-15.808,29.33-26.417c36.819-36.819,35.801-95.881,35.74-98.377c-0.134-5.436-4.509-9.813-9.945-9.945
			c-2.508-0.064-61.559-1.077-98.378,35.74c-10.608,10.608-19.391,20.358-26.416,29.329c1.376-11.311,2.059-24.415,2.059-39.418
			c0-52.07-42.483-93.114-44.291-94.835c-3.938-3.75-10.127-3.75-14.066,0c-1.808,1.722-44.291,42.765-44.291,94.835
			c0,15.003,0.683,28.107,2.059,39.418c-7.025-8.971-15.808-18.721-26.417-29.329C143.5,70.917,84.435,71.93,81.942,71.997
			c-5.437,0.134-9.813,4.509-9.945,9.945c-0.061,2.496-1.079,61.558,35.74,98.377c10.609,10.608,20.358,19.392,29.329,26.417
			c-11.312-1.376-24.416-2.059-39.418-2.059c-52.07,0-93.114,42.483-94.835,44.291c-3.749,3.938-3.749,10.127,0,14.065
			c1.722,1.808,42.765,44.291,94.835,44.291c15.003,0,28.107-0.683,39.418-2.059c-8.971,7.025-18.721,15.808-29.329,26.417
			c-36.819,36.819-35.802,95.881-35.74,98.377c0.134,5.437,4.509,9.813,9.945,9.945c0.179,0.004,0.645,0.013,1.372,0.013
			c9.452,0,62.818-1.567,97.005-35.753c10.608-10.609,19.392-20.358,26.417-29.329c-1.376,11.312-2.059,24.416-2.059,39.418
			c0,52.07,42.483,93.114,44.291,94.835c1.969,1.875,4.501,2.812,7.032,2.812c2.531,0,5.064-0.937,7.033-2.812
			c1.807-1.722,44.291-42.765,44.291-94.835c0-15.003-0.683-28.107-2.059-39.418c7.025,8.971,15.808,18.721,26.416,29.329
			c34.19,34.19,87.559,35.753,97.006,35.753c0.726,0,1.194-0.009,1.373-0.013c5.436-0.134,9.812-4.509,9.945-9.945
			c0.061-2.496,1.079-61.558-35.74-98.377c-10.608-10.608-20.358-19.392-29.329-26.416c11.311,1.376,24.415,2.059,39.418,2.059
			c52.07,0,93.114-42.483,94.834-44.291C512.938,259.095,512.938,252.907,509.188,248.968z M346.105,122.162
			c22.272-22.272,56.141-27.899,73.066-29.309c-1.381,16.906-6.97,50.683-29.331,73.044c-20.35,20.352-37.052,33.412-49.783,38.953
			c-8.19-13.408-19.496-24.715-32.904-32.905C312.695,159.213,325.754,142.512,346.105,122.162z M256.016,25.259
			c10.978,12.931,30.911,40.766,30.911,72.39c0,28.761-2.571,49.796-7.648,62.718c-7.466-1.818-15.26-2.788-23.278-2.788
			s-15.812,0.971-23.278,2.788c-5.076-12.923-7.647-33.958-7.647-62.719C225.076,66.152,245.044,38.224,256.016,25.259z
			 M122.16,165.897c-22.271-22.272-27.898-56.139-29.308-73.066c16.906,1.381,50.683,6.969,73.044,29.331
			c20.352,20.35,33.412,37.052,38.953,49.783c-13.409,8.19-24.715,19.496-32.905,32.905
			C159.213,199.309,142.512,186.248,122.16,165.897z M97.649,286.926c-31.497,0.001-59.425-19.969-72.39-30.939
			c12.931-10.978,40.766-30.911,72.39-30.911c28.761,0,49.796,2.571,62.719,7.647c-1.818,7.466-2.788,15.26-2.788,23.278
			s0.971,15.812,2.788,23.278C147.444,284.355,126.409,286.926,97.649,286.926z M165.896,389.841
			c-22.271,22.271-56.138,27.899-73.065,29.308c1.381-16.906,6.969-50.683,29.331-73.044c20.35-20.352,37.052-33.412,49.783-38.953
			c8.19,13.409,19.496,24.715,32.905,32.905C199.307,352.788,186.247,369.489,165.896,389.841z M255.986,486.743
			c-10.978-12.931-30.911-40.766-30.911-72.39c0-28.761,2.571-49.796,7.647-62.719c7.466,1.818,15.26,2.788,23.278,2.788
			s15.812-0.971,23.278-2.788c5.076,12.922,7.647,33.957,7.647,62.719C286.926,445.851,266.956,473.778,255.986,486.743z
			 M256,334.025c-43.022,0-78.024-35.002-78.024-78.024s35.002-78.024,78.024-78.024c43.023,0,78.024,35.002,78.024,78.024
			S299.024,334.025,256,334.025z M389.841,346.105c22.272,22.273,27.899,56.141,29.309,73.066
			c-16.907-1.381-50.684-6.969-73.045-29.331c-20.35-20.35-33.411-37.052-38.953-49.783c13.408-8.19,24.715-19.496,32.905-32.905
			C352.789,312.694,369.49,325.753,389.841,346.105z M414.353,286.927c-28.761,0-49.796-2.571-62.719-7.647
			c1.818-7.466,2.788-15.26,2.788-23.278s-0.971-15.812-2.788-23.278c12.923-5.076,33.958-7.647,62.719-7.647
			c31.481,0,59.397,19.951,72.372,30.925C473.744,266.98,445.831,286.927,414.353,286.927z"/>
	</g>
</g>
<g>
	<g>
		<path d="M313.795,279.462c-4.797-2.948-11.078-1.446-14.029,3.352c-9.424,15.345-25.786,24.506-43.766,24.506
			c-5.633,0-10.199,4.566-10.199,10.199c0,5.633,4.566,10.199,10.199,10.199c25.125,0,47.984-12.795,61.148-34.227
			C320.096,288.691,318.595,282.41,313.795,279.462z"/>
	</g>
</g>
<g>
	<g>
		<path d="M317.518,245.802c-5.632,0-10.199,4.566-10.199,10.199c0,0.802-0.018,1.598-0.055,2.391
			c-0.259,5.628,4.092,10.399,9.718,10.659c0.161,0.007,0.319,0.011,0.479,0.011c5.417,0,9.928-4.262,10.18-9.729
			c0.051-1.101,0.076-2.221,0.076-3.332C327.717,250.368,323.15,245.802,317.518,245.802z"/>
	</g>
</g>
<g>
</g>
<g>
</g>
<g>
</g>
<g>
</g>
<g>
</g>
<g>
</g>
<g>
</g>
<g>
</g>
<g>
</g>
<g>
</g>
<g>
</g>
<g>
</g>
<g>
</g>
<g>
</g>
<g>
</g>
</svg>
