<?xml version="1.0" encoding="UTF-8"?>
<!DOCTYPE svg PUBLIC "-//W3C//DTD SVG 1.1//EN" "http://www.w3.org/Graphics/SVG/1.1/DTD/svg11.dtd">
<svg version="1.2" width="135.73mm" height="135.73mm" viewBox="0 0 13573 13573" preserveAspectRatio="xMidYMid" fill-rule="evenodd" stroke-width="28.222" stroke-linejoin="round" xmlns="http://www.w3.org/2000/svg" xmlns:ooo="http://xml.openoffice.org/svg/export" xmlns:xlink="http://www.w3.org/1999/xlink" xmlns:presentation="http://sun.com/xmlns/staroffice/presentation" xmlns:smil="http://www.w3.org/2001/SMIL20/" xmlns:anim="urn:oasis:names:tc:opendocument:xmlns:animation:1.0" xml:space="preserve">
 <defs class="ClipPathGroup">
  <clipPath id="presentation_clip_path" clipPathUnits="userSpaceOnUse">
   <rect x="0" y="0" width="13573" height="13573"/>
  </clipPath>
  <clipPath id="presentation_clip_path_shrink" clipPathUnits="userSpaceOnUse">
   <rect x="13" y="13" width="13546" height="13546"/>
  </clipPath>
 </defs>
 <defs class="TextShapeIndex">
  <g ooo:slide="id1" ooo:id-list="id3 id4"/>
 </defs>
 <defs class="EmbeddedBulletChars">
  <g id="bullet-char-template-57356" transform="scale(0.00048828125,-0.00048828125)">
   <path d="M 580,1141 L 1163,571 580,0 -4,571 580,1141 Z"/>
  </g>
  <g id="bullet-char-template-57354" transform="scale(0.00048828125,-0.00048828125)">
   <path d="M 8,1128 L 1137,1128 1137,0 8,0 8,1128 Z"/>
  </g>
  <g id="bullet-char-template-10146" transform="scale(0.00048828125,-0.00048828125)">
   <path d="M 174,0 L 602,739 174,1481 1456,739 174,0 Z M 1358,739 L 309,1346 659,739 1358,739 Z"/>
  </g>
  <g id="bullet-char-template-10132" transform="scale(0.00048828125,-0.00048828125)">
   <path d="M 2015,739 L 1276,0 717,0 1260,543 174,543 174,936 1260,936 717,1481 1274,1481 2015,739 Z"/>
  </g>
  <g id="bullet-char-template-10007" transform="scale(0.00048828125,-0.00048828125)">
   <path d="M 0,-2 C -7,14 -16,27 -25,37 L 356,567 C 262,823 215,952 215,954 215,979 228,992 255,992 264,992 276,990 289,987 310,991 331,999 354,1012 L 381,999 492,748 772,1049 836,1024 860,1049 C 881,1039 901,1025 922,1006 886,937 835,863 770,784 769,783 710,716 594,584 L 774,223 C 774,196 753,168 711,139 L 727,119 C 717,90 699,76 672,76 641,76 570,178 457,381 L 164,-76 C 142,-110 111,-127 72,-127 30,-127 9,-110 8,-76 1,-67 -2,-52 -2,-32 -2,-23 -1,-13 0,-2 Z"/>
  </g>
  <g id="bullet-char-template-10004" transform="scale(0.00048828125,-0.00048828125)">
   <path d="M 285,-33 C 182,-33 111,30 74,156 52,228 41,333 41,471 41,549 55,616 82,672 116,743 169,778 240,778 293,778 328,747 346,684 L 369,508 C 377,444 397,411 428,410 L 1163,1116 C 1174,1127 1196,1133 1229,1133 1271,1133 1292,1118 1292,1087 L 1292,965 C 1292,929 1282,901 1262,881 L 442,47 C 390,-6 338,-33 285,-33 Z"/>
  </g>
  <g id="bullet-char-template-9679" transform="scale(0.00048828125,-0.00048828125)">
   <path d="M 813,0 C 632,0 489,54 383,161 276,268 223,411 223,592 223,773 276,916 383,1023 489,1130 632,1184 813,1184 992,1184 1136,1130 1245,1023 1353,916 1407,772 1407,592 1407,412 1353,268 1245,161 1136,54 992,0 813,0 Z"/>
  </g>
  <g id="bullet-char-template-8226" transform="scale(0.00048828125,-0.00048828125)">
   <path d="M 346,457 C 273,457 209,483 155,535 101,586 74,649 74,723 74,796 101,859 155,911 209,963 273,989 346,989 419,989 480,963 531,910 582,859 608,796 608,723 608,648 583,586 532,535 482,483 420,457 346,457 Z"/>
  </g>
  <g id="bullet-char-template-8211" transform="scale(0.00048828125,-0.00048828125)">
   <path d="M -4,459 L 1135,459 1135,606 -4,606 -4,459 Z"/>
  </g>
  <g id="bullet-char-template-61548" transform="scale(0.00048828125,-0.00048828125)">
   <path d="M 173,740 C 173,903 231,1043 346,1159 462,1274 601,1332 765,1332 928,1332 1067,1274 1183,1159 1299,1043 1357,903 1357,740 1357,577 1299,437 1183,322 1067,206 928,148 765,148 601,148 462,206 346,322 231,437 173,577 173,740 Z"/>
  </g>
 </defs>
 <g>
  <g id="id2" class="Master_Slide">
   <g id="bg-id2" class="Background"/>
   <g id="bo-id2" class="BackgroundObjects"/>
  </g>
 </g>
 <g class="SlideGroup">
  <g>
   <g id="container-id1">
    <g id="id1" class="Slide" clip-path="url(#presentation_clip_path)">
     <g class="Page">
      <g class="Graphic">
       <g id="id3">
        <rect class="BoundingBox" stroke="none" fill="none" x="0" y="8620" width="4953" height="4953"/>
        <path fill="rgb(0,0,0)" stroke="none" d="M 4920,11028 C 4903,11011 4507,10601 4005,10601 3860,10601 3733,10607 3624,10620 3711,10553 3805,10468 3907,10365 4263,10010 4253,9440 4252,9416 4251,9363 4209,9321 4156,9320 4132,9319 3562,9309 3207,9665 3104,9767 3019,9861 2952,9948 2965,9839 2971,9712 2971,9567 2971,9065 2561,8669 2544,8652 2506,8616 2446,8616 2408,8652 2391,8669 1981,9065 1981,9567 1981,9712 1987,9839 2000,9948 1933,9861 1848,9767 1745,9665 1390,9309 820,9319 796,9320 743,9321 701,9363 700,9416 699,9440 689,10010 1045,10365 1147,10468 1241,10553 1328,10620 1219,10607 1092,10601 947,10601 445,10601 49,11011 32,11028 -4,11066 -4,11126 32,11164 49,11181 445,11591 947,11591 1092,11591 1219,11585 1328,11572 1241,11639 1147,11724 1045,11827 689,12182 699,12752 700,12776 701,12829 743,12871 796,12872 798,12872 802,12872 809,12872 900,12872 1415,12857 1745,12527 1848,12425 1933,12331 2000,12244 1987,12353 1981,12480 1981,12625 1981,13127 2391,13523 2408,13540 2427,13558 2452,13567 2476,13567 2500,13567 2525,13558 2544,13540 2561,13523 2971,13127 2971,12625 2971,12480 2965,12353 2952,12244 3019,12331 3104,12425 3207,12527 3537,12857 4052,12872 4143,12872 4150,12872 4154,12872 4156,12872 4209,12871 4251,12829 4252,12776 4253,12752 4263,12182 3907,11827 3805,11724 3711,11639 3624,11572 3733,11585 3860,11591 4005,11591 4507,11591 4903,11181 4920,11164 4956,11126 4956,11066 4920,11028 L 4920,11028 Z M 3346,9804 C 3561,9589 3888,9535 4051,9521 4038,9684 3984,10010 3768,10226 3572,10423 3410,10549 3287,10602 3208,10473 3099,10364 2970,10285 3023,10162 3149,10000 3346,9804 L 3346,9804 Z M 2476,8869 C 2582,8993 2775,9262 2775,9567 2775,9845 2750,10048 2701,10173 2629,10155 2553,10146 2476,10146 2399,10146 2323,10155 2251,10173 2202,10048 2177,9845 2177,9567 2177,9263 2370,8994 2476,8869 L 2476,8869 Z M 1184,10226 C 969,10011 915,9684 901,9521 1064,9534 1390,9588 1606,9804 1803,10000 1929,10162 1982,10285 1853,10364 1744,10473 1665,10602 1542,10549 1380,10423 1184,10226 L 1184,10226 Z M 947,11395 C 643,11395 374,11202 249,11096 373,10990 642,10797 947,10797 1225,10797 1428,10822 1553,10871 1535,10943 1526,11019 1526,11096 1526,11173 1535,11249 1553,11321 1428,11370 1225,11395 947,11395 L 947,11395 Z M 1606,12388 C 1391,12603 1064,12657 901,12671 914,12508 968,12182 1184,11966 1380,11769 1542,11643 1665,11590 1744,11719 1853,11828 1982,11907 1929,12030 1803,12192 1606,12388 L 1606,12388 Z M 2476,13323 C 2370,13199 2177,12930 2177,12625 2177,12347 2202,12144 2251,12019 2323,12037 2399,12046 2476,12046 2553,12046 2629,12037 2701,12019 2750,12144 2775,12347 2775,12625 2775,12929 2582,13198 2476,13323 L 2476,13323 Z M 2476,11849 C 2061,11849 1723,11511 1723,11096 1723,10681 2061,10343 2476,10343 2891,10343 3229,10681 3229,11096 3229,11511 2891,11849 2476,11849 L 2476,11849 Z M 3768,11966 C 3983,12181 4037,12508 4051,12671 3888,12658 3562,12604 3346,12388 3149,12192 3023,12030 2970,11907 3099,11828 3208,11719 3287,11590 3410,11643 3572,11769 3768,11966 L 3768,11966 Z M 4005,11395 C 3727,11395 3524,11370 3399,11321 3417,11249 3426,11173 3426,11096 3426,11019 3417,10943 3399,10871 3524,10822 3727,10797 4005,10797 4308,10797 4578,10990 4703,11096 4578,11202 4308,11395 4005,11395 L 4005,11395 Z"/>
        <path fill="rgb(0,0,0)" stroke="none" d="M 3034,11322 C 2988,11294 2927,11309 2898,11355 2807,11503 2650,11591 2476,11591 2422,11591 2378,11635 2378,11690 2378,11744 2422,11788 2476,11788 2719,11788 2939,11665 3066,11458 3095,11412 3080,11351 3034,11322 L 3034,11322 Z"/>
        <path fill="rgb(0,0,0)" stroke="none" d="M 3070,10998 C 3015,10998 2971,11042 2971,11096 2971,11104 2971,11111 2971,11119 2968,11173 3010,11219 3065,11222 3066,11222 3068,11222 3069,11222 3122,11222 3165,11181 3168,11128 3168,11118 3168,11107 3168,11096 3168,11042 3124,10998 3070,10998 L 3070,10998 Z"/>
       </g>
      </g>
      <g class="Graphic">
       <g id="id4">
        <rect class="BoundingBox" stroke="none" fill="none" x="8652" y="0" width="4953" height="4953"/>
        <path fill="rgb(0,0,0)" stroke="none" d="M 13572,2408 C 13555,2391 13159,1981 12657,1981 12512,1981 12385,1987 12276,2000 12363,1933 12457,1848 12559,1745 12915,1390 12905,820 12904,796 12903,743 12861,701 12808,700 12784,699 12214,689 11859,1045 11756,1147 11671,1241 11604,1328 11617,1219 11623,1092 11623,947 11623,445 11213,49 11196,32 11158,-4 11098,-4 11060,32 11043,49 10633,445 10633,947 10633,1092 10639,1219 10652,1328 10585,1241 10500,1147 10397,1045 10042,689 9472,699 9448,700 9395,701 9353,743 9352,796 9351,820 9341,1390 9697,1745 9799,1848 9893,1933 9980,2000 9871,1987 9744,1981 9599,1981 9097,1981 8701,2391 8684,2408 8648,2446 8648,2506 8684,2544 8701,2561 9097,2971 9599,2971 9744,2971 9871,2965 9980,2952 9893,3019 9799,3104 9697,3207 9341,3562 9351,4132 9352,4156 9353,4209 9395,4251 9448,4252 9450,4252 9454,4252 9461,4252 9552,4252 10067,4237 10397,3907 10500,3805 10585,3711 10652,3624 10639,3733 10633,3860 10633,4005 10633,4507 11043,4903 11060,4920 11079,4938 11104,4947 11128,4947 11152,4947 11177,4938 11196,4920 11213,4903 11623,4507 11623,4005 11623,3860 11617,3733 11604,3624 11671,3711 11756,3805 11859,3907 12189,4237 12704,4252 12795,4252 12802,4252 12806,4252 12808,4252 12861,4251 12903,4209 12904,4156 12905,4132 12915,3562 12559,3207 12457,3104 12363,3019 12276,2952 12385,2965 12512,2971 12657,2971 13159,2971 13555,2561 13572,2544 13608,2506 13608,2446 13572,2408 L 13572,2408 Z M 11998,1184 C 12213,969 12540,915 12703,901 12690,1064 12636,1390 12420,1606 12224,1803 12062,1929 11939,1982 11860,1853 11751,1744 11622,1665 11675,1542 11801,1380 11998,1184 L 11998,1184 Z M 11128,249 C 11234,373 11427,642 11427,947 11427,1225 11402,1428 11353,1553 11281,1535 11205,1526 11128,1526 11051,1526 10975,1535 10903,1553 10854,1428 10829,1225 10829,947 10829,643 11022,374 11128,249 L 11128,249 Z M 9836,1606 C 9621,1391 9567,1064 9553,901 9716,914 10042,968 10258,1184 10455,1380 10581,1542 10634,1665 10505,1744 10396,1853 10317,1982 10194,1929 10032,1803 9836,1606 L 9836,1606 Z M 9599,2775 C 9295,2775 9026,2582 8901,2476 9025,2370 9294,2177 9599,2177 9877,2177 10080,2202 10205,2251 10187,2323 10178,2399 10178,2476 10178,2553 10187,2629 10205,2701 10080,2750 9877,2775 9599,2775 L 9599,2775 Z M 10258,3768 C 10043,3983 9716,4037 9553,4051 9566,3888 9620,3562 9836,3346 10032,3149 10194,3023 10317,2970 10396,3099 10505,3208 10634,3287 10581,3410 10455,3572 10258,3768 L 10258,3768 Z M 11128,4703 C 11022,4579 10829,4310 10829,4005 10829,3727 10854,3524 10903,3399 10975,3417 11051,3426 11128,3426 11205,3426 11281,3417 11353,3399 11402,3524 11427,3727 11427,4005 11427,4309 11234,4578 11128,4703 L 11128,4703 Z M 11128,3229 C 10713,3229 10375,2891 10375,2476 10375,2061 10713,1723 11128,1723 11543,1723 11881,2061 11881,2476 11881,2891 11543,3229 11128,3229 L 11128,3229 Z M 12420,3346 C 12635,3561 12689,3888 12703,4051 12540,4038 12214,3984 11998,3768 11801,3572 11675,3410 11622,3287 11751,3208 11860,3099 11939,2970 12062,3023 12224,3149 12420,3346 L 12420,3346 Z M 12657,2775 C 12379,2775 12176,2750 12051,2701 12069,2629 12078,2553 12078,2476 12078,2399 12069,2323 12051,2251 12176,2202 12379,2177 12657,2177 12960,2177 13230,2370 13355,2476 13230,2582 12960,2775 12657,2775 L 12657,2775 Z"/>
        <path fill="rgb(0,0,0)" stroke="none" d="M 11686,2702 C 11640,2674 11579,2689 11550,2735 11459,2883 11302,2971 11128,2971 11074,2971 11030,3015 11030,3070 11030,3124 11074,3168 11128,3168 11371,3168 11591,3045 11718,2838 11747,2792 11732,2731 11686,2702 L 11686,2702 Z"/>
        <path fill="rgb(0,0,0)" stroke="none" d="M 11722,2378 C 11667,2378 11623,2422 11623,2476 11623,2484 11623,2491 11623,2499 11620,2553 11662,2599 11717,2602 11718,2602 11720,2602 11721,2602 11774,2602 11817,2561 11820,2508 11820,2498 11820,2487 11820,2476 11820,2422 11776,2378 11722,2378 L 11722,2378 Z"/>
       </g>
      </g>
     </g>
    </g>
   </g>
  </g>
 </g>
</svg>